<svg width="50" height="20" viewBox="0 0 50 20" fill="none" xmlns="http://www.w3.org/2000/svg">
<path d="M9.13595 2.57849C8.55002 3.25396 7.61232 3.78691 6.67472 3.71071C6.55754 2.7974 7.01652 1.82681 7.55373 1.22736C8.13966 0.53286 9.16525 0.0380546 9.99543 0C10.0931 0.951461 9.71212 1.8839 9.13595 2.57849ZM9.98566 3.89156C8.62804 3.81545 7.46584 4.64314 6.82121 4.64314C6.16691 4.64314 5.18039 3.92962 4.10607 3.94865C2.70949 3.96767 1.41047 4.73828 0.69748 5.96573C-0.767559 8.42054 0.316621 12.0552 1.73273 14.0533C2.42619 15.0428 3.25637 16.1275 4.35021 16.0894C5.38556 16.0514 5.79572 15.433 7.04592 15.433C8.30578 15.433 8.6672 16.0894 9.76105 16.0704C10.894 16.0514 11.6069 15.081 12.3004 14.0914C13.0914 12.9686 13.4138 11.8744 13.4333 11.8173C13.4138 11.7983 11.2456 10.9896 11.2261 8.55373C11.2066 6.51762 12.9353 5.54713 13.0134 5.49005C12.0366 4.08184 10.5131 3.92962 9.98566 3.89156ZM17.8284 1.13222V15.9658H20.1919V10.8945H23.4638C26.4524 10.8945 28.5523 8.89642 28.5523 6.00388C28.5523 3.11144 26.4914 1.13232 23.5419 1.13232H17.8283L17.8284 1.13222ZM20.1919 3.07329H22.9168C24.9679 3.07329 26.1399 4.13892 26.1399 6.0133C26.1399 7.88768 24.9679 8.96292 22.907 8.96292H20.1919V3.07329ZM32.8691 16.0799C34.3537 16.0799 35.7308 15.3473 36.3559 14.1865H36.4047V15.9657H38.5925V8.58227C38.5925 6.44151 36.8345 5.06184 34.129 5.06184C31.6189 5.06184 29.7633 6.46054 29.6949 8.38249H31.8241C31.9999 7.46908 32.869 6.86963 34.0606 6.86963C35.5062 6.86963 36.3168 7.52616 36.3168 8.73459V9.55276L33.3672 9.72401C30.6228 9.88574 29.1383 10.98 29.1383 12.883C29.1383 14.805 30.6716 16.0799 32.8691 16.0799ZM33.5039 14.3197C32.2441 14.3197 31.4432 13.7298 31.4432 12.8258C31.4432 11.8935 32.2148 11.3511 33.6896 11.2655L36.3168 11.1038V11.941C36.3168 13.3302 35.1058 14.3197 33.504 14.3197H33.5039ZM41.5127 20C43.8177 20 44.9018 19.1438 45.8491 16.5462L50 5.20454H47.5974L44.8139 13.9676H44.765L41.9815 5.20454H39.5106L43.5148 16.0038L43.3 16.6603C42.9387 17.7735 42.3526 18.2017 41.3076 18.2017C41.1221 18.2017 40.7607 18.1827 40.6142 18.1637V19.9429C40.7509 19.981 41.3368 20 41.5127 20Z" fill="#DCDCDC"/>
</svg>
