<svg width="126" height="84" viewBox="0 0 126 84" fill="none" xmlns="http://www.w3.org/2000/svg">
<rect width="126" height="84" rx="14" fill="#202020"/>
<path d="M25.1521 13.0045C24.5783 13.0052 24.0044 13.0089 23.4307 13.0158C22.8619 13.0347 22.2818 13.0649 21.7168 13.1668C20.863 13.3011 20.0535 13.6353 19.3547 14.142C18.656 14.6486 18.0881 15.3131 17.6977 16.0809C17.4323 16.6018 17.2654 17.1303 17.1668 17.7041C17.0607 18.2627 17.0265 18.8365 17.0152 19.4027C17.0074 19.6656 17.0023 19.9286 17 20.1916L17 63.8166C17 64.0808 17.0076 64.3375 17.0114 64.598C17.0265 65.1642 17.0607 65.7417 17.163 66.3042C17.2654 66.8704 17.436 67.4026 17.7015 67.9236C18.2243 68.9484 19.0608 69.7812 20.0902 70.3017C20.6135 70.5659 21.1443 70.7358 21.7206 70.8377C22.2818 70.9396 22.8581 70.9736 23.4269 70.9887L24.2155 71H100.784L101.569 70.9887C102.138 70.9736 102.718 70.9396 103.283 70.8377C103.852 70.7358 104.387 70.5697 104.906 70.3054C105.938 69.7854 106.776 68.951 107.299 67.9236C107.564 67.4026 107.735 66.8742 107.833 66.3004C107.936 65.7418 107.97 65.168 107.985 64.6018C107.992 64.3375 107.996 64.0808 107.996 63.8166L108 62.888V20.1879C108 19.9236 107.992 19.6669 107.985 19.4065C107.978 18.8347 107.927 18.2644 107.833 17.7003C107.652 16.5635 107.114 15.513 106.297 14.6988C105.48 13.8845 104.425 13.3483 103.283 13.1668C102.716 13.0738 102.144 13.0233 101.569 13.0158C100.997 12.9997 100.424 12.9959 99.8517 13.0045H25.1521ZM25.1521 14.9372H100.765C101.016 14.9372 101.262 14.9447 101.512 14.9485C101.949 14.9636 102.46 14.9862 102.934 15.0693C103.348 15.1448 103.693 15.258 104.023 15.4241C104.688 15.7602 105.228 16.2983 105.566 16.9604C105.739 17.3026 105.86 17.6692 105.922 18.0476C106.006 18.5119 106.028 19.0215 106.04 19.4593C106.047 19.7047 106.051 19.95 106.051 20.203V63.8091C106.051 64.0544 106.051 64.2998 106.04 64.5489C106.028 64.983 106.006 65.4926 105.918 65.9645C105.836 66.5199 105.621 67.0476 105.291 67.5029C104.961 67.9582 104.526 68.3277 104.023 68.5804C103.681 68.7523 103.315 68.872 102.938 68.9352C102.47 69.0093 101.998 69.0496 101.524 69.056L100.765 69.0673H24.2269C23.9767 69.0673 23.7226 69.0598 23.4838 69.056C23.0075 69.0499 22.5323 69.0095 22.0619 68.9352C21.6486 68.8597 21.3035 68.7465 20.9699 68.5804C20.3047 68.2456 19.7651 67.707 19.4305 67.044C19.2572 66.7017 19.137 66.3351 19.074 65.9569C18.9987 65.4912 18.9582 65.0206 18.9527 64.5489C18.9476 64.3011 18.9451 64.0532 18.9451 63.8053V20.1992C18.9451 19.9538 18.9451 19.7047 18.9527 19.4555C18.9679 19.0252 18.9906 18.5194 19.074 18.04C19.1499 17.6323 19.2636 17.2888 19.4305 16.9567C19.7683 16.2956 20.3088 15.7588 20.9737 15.4241C21.3169 15.2532 21.6836 15.1337 22.0619 15.0693C22.5358 14.9862 23.0477 14.9598 23.4838 14.9485C23.7302 14.9409 23.9805 14.9409 24.2269 14.9372H25.1521ZM43.0108 28.9038C41.8733 28.9642 40.478 29.655 39.6742 30.6251C38.95 31.4555 38.3092 32.8145 38.476 34.0903C39.7576 34.2036 41.0354 33.4524 41.843 32.5125C42.6203 31.5386 43.1511 30.2363 43.0108 28.9076V28.9038ZM51.379 30.4892V51.224H54.6095V44.1388H59.0837C63.1711 44.1388 66.0414 41.3492 66.0414 37.2989C66.0414 33.2599 63.228 30.4854 59.1861 30.4854L51.379 30.4892ZM54.6095 33.2033H58.333C61.135 33.2033 62.7351 34.6981 62.7351 37.314C62.7351 39.9261 61.135 41.436 58.3216 41.436H54.6095V33.2033ZM42.6506 34.3357C40.9444 34.3734 39.5035 35.3926 38.6694 35.3926C37.7783 35.3926 36.4209 34.3961 34.9498 34.4225C33.9928 34.4463 33.0587 34.7191 32.2405 35.2138C31.4223 35.7085 30.7485 36.4078 30.286 37.2423C28.2878 40.6697 29.759 45.7544 31.7041 48.5477C32.6482 49.9292 33.7857 51.4505 35.2834 51.3939C36.6977 51.341 37.2551 50.4804 38.9727 50.4804C40.6941 50.4804 41.1946 51.3939 42.6885 51.3674C44.2431 51.341 45.2176 49.9859 46.1579 48.6005C47.2423 47.0265 47.686 45.5052 47.7125 45.4259C47.686 45.3958 44.7171 44.2633 44.6905 40.8623C44.6602 38.0161 47.0224 36.6609 47.1324 36.5779C45.7977 34.615 43.7199 34.3961 42.9995 34.3395C42.8833 34.3322 42.767 34.3335 42.6506 34.3357ZM73.7575 35.8343C70.0037 35.8343 67.668 37.8462 67.4936 40.5754H70.4398C70.7127 39.224 71.8389 38.3634 73.6437 38.3634C75.5471 38.3634 76.6884 39.3674 76.6884 41.0472V42.2136L72.529 42.4552C68.9231 42.659 66.887 44.2822 66.887 46.9245C66.887 49.6424 68.9648 51.4807 71.9375 51.4807C73.9319 51.4807 75.8505 50.42 76.7301 48.7364H76.8022V51.224H79.79V40.8056C79.79 37.7745 77.4392 35.8343 73.7575 35.8343ZM81.1133 36.106L86.596 51.2391C86.596 51.2504 86.3193 52.145 86.3193 52.1715C85.8453 53.7191 85.068 54.3269 83.6234 54.3269C83.3617 54.3269 82.8423 54.3269 82.611 54.2702V56.7842C82.8385 56.8258 83.6234 56.8559 83.8812 56.8559C87.0283 56.8559 88.5298 55.6782 89.8265 52.0129L95.514 36.106H92.2229L88.3857 48.408H88.3288L84.4879 36.1023L81.1133 36.106ZM76.6884 44.369V45.5618C76.6884 47.5285 74.9822 49.0233 72.8058 49.0233C71.1298 49.0233 70.034 48.1627 70.034 46.8377C70.034 45.5467 71.0881 44.7238 72.9498 44.5993L76.6884 44.369Z" fill="white"/>
</svg>
