<svg xmlns="http://www.w3.org/2000/svg" viewBox="0 0 18.95 24"><defs><style>.cls-1,.cls-2{fill:#fff;}.cls-2{stroke:#000;stroke-miterlimit:10;stroke-width:0.15px;}</style></defs><title>Ресурс 1</title><g id="Слой_2" data-name="Слой 2"><g id="Слой_1-2" data-name="Слой 1"><path d="M4.49,9,4,8.26,3.55,9H2.06v14H6V9ZM5.83,22.76H2.21V9.1H3.63L4,8.53l.39.57H5.83Z"/><polygon class="cls-1" points="5.83 9.1 5.83 22.76 2.21 22.76 2.21 9.1 3.63 9.1 4.02 8.53 4.41 9.1 5.83 9.1"/><path d="M15.41,9l-.48-.69L14.46,9H13v14h3.92V9Zm1.33,13.81H13.12V9.1h1.42l.39-.57.4.57h1.41Z"/><polygon class="cls-1" points="16.74 9.1 16.74 22.76 13.12 22.76 13.12 9.1 14.54 9.1 14.93 8.53 15.33 9.1 16.74 9.1"/><path d="M9.47,9,5.86,12.26l0,0V22.92h7.28V12.28ZM13,22.76H6V12.35L9.47,9.2,13,12.35Z"/><polygon class="cls-1" points="12.96 12.35 12.96 22.76 5.98 22.76 5.98 12.35 9.47 9.2 12.96 12.35"/><polygon class="cls-2" points="16.81 9.02 15.37 9.02 14.93 8.39 14.5 9.02 13.04 9.02 14.71 3.57 14.71 5.44 14.71 5.8 15.15 5.8 15.15 5.44 15.15 3.58 16.81 9.02"/><polygon class="cls-1" points="14.78 5.76 14.79 0.99 14.38 0.99 14.38 0.7 14.79 0.7 14.79 0.08 15.09 0.08 15.09 0.7 15.48 0.7 15.48 0.99 15.08 0.99 15.07 5.76 14.78 5.76"/><path d="M14.87.16H15V.78h.39V.92H15V5.69h-.14V.92h-.42V.78h.42V.16M14.71,0V.62H14.3v.45h.41V5.84h.45V1.07h.4V.62h-.4V0h-.45Z"/><polygon class="cls-2" points="5.9 9.02 4.45 9.02 4.02 8.39 3.59 9.02 2.13 9.02 3.8 3.57 3.79 5.44 3.79 5.8 4.24 5.8 4.24 5.44 4.24 3.58 5.9 9.02"/><polygon class="cls-1" points="3.87 5.76 3.88 0.99 3.47 0.99 3.47 0.7 3.88 0.7 3.88 0.08 4.17 0.08 4.17 0.7 4.57 0.7 4.57 0.99 4.17 0.99 4.16 5.76 3.87 5.76"/><path d="M4,.16H4.1V.78h.4V.92h-.4V5.69H4V.92H3.54V.78H4V.16M3.8,0V.62H3.39v.45H3.8V5.84h.45V1.07h.39V.62H4.25V0H3.8Z"/><path d="M9.39,16.87H8.27a1.2,1.2,0,0,1,1.12-1.12Z"/><path d="M8.27,17H9.39v1.12A1.2,1.2,0,0,1,8.27,17Z"/><path d="M9.55,17h1.12a1.2,1.2,0,0,1-1.12,1.12Z"/><path d="M10.67,16.87H9.55V15.75A1.2,1.2,0,0,1,10.67,16.87Z"/><rect y="23.22" width="18.95" height="0.78"/><path d="M9.47,9.65,6.36,12.47v10h6.24v-10Zm0,8.91a1.62,1.62,0,1,1,1.62-1.62A1.61,1.61,0,0,1,9.47,18.56Z"/><polygon points="5.51 9.44 5.51 22.45 2.52 22.45 2.52 9.44 3.67 9.44 4.02 8.93 4.36 9.44 5.51 9.44"/><polygon points="16.43 9.44 16.43 22.45 13.43 22.45 13.43 9.44 14.59 9.44 14.93 8.93 15.28 9.44 16.43 9.44"/></g></g></svg>