<svg xmlns="http://www.w3.org/2000/svg" viewBox="0 0 50.52 64"><defs><style>.cls-1,.cls-2{fill:#fff;}.cls-2{stroke:#000;stroke-miterlimit:10;stroke-width:0.41px;}</style></defs><title>Ресурс 3</title><g id="Слой_2" data-name="Слой 2"><g id="Слой_1-2" data-name="Слой 1"><path d="M12,23.86,10.72,22,9.46,23.86h-4V61.11H15.94V23.86ZM15.53,60.7H5.89V24.26H9.68l1-1.52,1,1.52h3.76Z"/><polygon class="cls-1" points="15.54 24.26 15.54 60.7 5.89 60.7 5.89 24.26 9.68 24.26 10.72 22.74 11.77 24.26 15.54 24.26"/><path d="M41.09,23.86,39.82,22l-1.26,1.84h-4V61.11H45V23.86ZM44.64,60.7H35V24.26h3.78l1-1.52,1,1.52h3.77Z"/><polygon class="cls-1" points="44.64 24.26 44.64 60.7 34.99 60.7 34.99 24.26 38.77 24.26 39.82 22.74 40.87 24.26 44.64 24.26"/><path d="M25.26,24,15.62,32.7l-.07.06,0,28.14v.21H35V32.76Zm9.3,36.72H15.94l0-27.76,9.3-8.42,9.31,8.42Z"/><polygon class="cls-1" points="34.57 32.94 34.56 60.7 15.94 60.7 15.96 32.94 25.26 24.52 34.57 32.94"/><polygon class="cls-2" points="44.84 24.06 40.98 24.06 39.82 22.38 38.67 24.06 34.79 24.06 39.23 9.51 39.22 14.5 39.22 15.46 40.4 15.46 40.4 14.5 40.41 9.56 44.84 24.06"/><polygon class="cls-1" points="39.41 15.37 39.44 2.65 38.34 2.65 38.34 1.86 39.44 1.86 39.44 0.21 40.23 0.22 40.23 1.86 41.28 1.86 41.28 2.65 40.22 2.65 40.2 15.37 39.41 15.37"/><path d="M39.65.42H40V2.07h1v.37H40v7.77l0,5h-.37V8.84l0-6.4h-1.1V2.07h1.1V.42M39.24,0V1.66h-1.1v1.2h1.1V15.58h1.2V2.86h1.06V1.66H40.43V0h-1.2Z"/><polygon class="cls-2" points="15.74 24.06 11.88 24.06 10.72 22.38 9.57 24.06 5.69 24.06 10.13 9.51 10.12 14.5 10.12 15.46 11.3 15.46 11.3 14.5 11.31 9.56 15.74 24.06"/><polygon class="cls-1" points="10.31 15.37 10.34 2.65 9.24 2.65 9.24 1.86 10.34 1.86 10.34 0.21 11.13 0.22 11.13 1.86 12.18 1.86 12.18 2.65 11.12 2.65 11.1 15.37 10.31 15.37"/><path d="M10.55.42h.37V2.07H12v.37H10.92v7.77l0,5h-.37V8.84l0-6.4H9.45V2.07h1.1V.42M10.14,0V1.66H9v1.2h1.1V15.58h1.2V2.86h1.06V1.66H11.33V0h-1.2Z"/><path d="M25.05,45h-3a3.21,3.21,0,0,1,3-3Z"/><path d="M22.06,45.42h3v3A3.21,3.21,0,0,1,22.06,45.42Z"/><path d="M25.48,45.42h3a3.2,3.2,0,0,1-3,3Z"/><path d="M28.46,45h-3V42A3.2,3.2,0,0,1,28.46,45Z"/><rect y="61.93" width="50.52" height="2.07"/><path d="M25.26,25.73,17,33.25V59.86H33.56V33.25Zm0,23.77a4.33,4.33,0,1,1,4.33-4.32A4.32,4.32,0,0,1,25.25,49.5Z"/><polygon points="14.7 25.18 14.7 59.86 6.72 59.86 6.72 25.18 9.8 25.18 10.71 23.81 11.64 25.18 14.7 25.18"/><polygon points="43.8 25.18 43.8 59.86 35.81 59.86 35.81 25.18 38.9 25.18 39.81 23.81 40.74 25.18 43.8 25.18"/></g></g></svg>