<svg xmlns="http://www.w3.org/2000/svg" viewBox="0 0 25.26 32"><defs><style>.cls-1,.cls-2{fill:#fff;}.cls-2{stroke:#000;stroke-miterlimit:10;stroke-width:0.21px;}</style></defs><title>Ресурс 2</title><g id="Слой_2" data-name="Слой 2"><g id="Слой_1-2" data-name="Слой 1"><path d="M6,11.93,5.36,11l-.63.92h-2V30.55H8V11.93ZM7.77,30.35H2.94V12.13h1.9l.52-.76.52.76H7.77Z"/><polygon class="cls-1" points="7.77 12.13 7.77 30.35 2.94 30.35 2.94 12.13 4.84 12.13 5.36 11.37 5.88 12.13 7.77 12.13"/><path d="M20.54,11.93,19.91,11l-.63.92h-2V30.55h5.23V11.93Zm1.78,18.42H17.49V12.13h1.9l.52-.76.53.76h1.88Z"/><polygon class="cls-1" points="22.32 12.13 22.32 30.35 17.5 30.35 17.5 12.13 19.39 12.13 19.91 11.37 20.43 12.13 22.32 12.13"/><path d="M12.63,12,7.81,16.35l0,0V30.55h9.71V16.38Zm4.65,18.36H8V16.47l4.65-4.21,4.65,4.21Z"/><polygon class="cls-1" points="17.28 16.47 17.28 30.35 7.97 30.35 7.98 16.47 12.63 12.26 17.28 16.47"/><polygon class="cls-2" points="22.42 12.03 20.49 12.03 19.91 11.19 19.33 12.03 17.39 12.03 19.61 4.76 19.61 7.25 19.61 7.73 20.2 7.73 20.2 7.25 20.2 4.78 22.42 12.03"/><polygon class="cls-1" points="19.71 7.69 19.72 1.32 19.17 1.32 19.17 0.93 19.72 0.93 19.72 0.1 20.11 0.11 20.11 0.93 20.64 0.93 20.64 1.32 20.11 1.32 20.1 7.69 19.71 7.69"/><path d="M19.82.21H20V1h.53v.18H20V7.58h-.19V1.22h-.55V1h.55V.21M19.62,0V.83h-.55v.6h.55V7.79h.6V1.43h.53V.83h-.52V0h-.6Z"/><polygon class="cls-2" points="7.87 12.03 5.94 12.03 5.36 11.19 4.78 12.03 2.84 12.03 5.07 4.76 5.06 7.25 5.06 7.73 5.65 7.73 5.65 7.25 5.66 4.78 7.87 12.03"/><polygon class="cls-1" points="5.16 7.69 5.17 1.32 4.62 1.32 4.62 0.93 5.17 0.93 5.17 0.1 5.57 0.11 5.56 0.93 6.09 0.93 6.09 1.32 5.56 1.32 5.55 7.69 5.16 7.69"/><path d="M5.28.21h.18V1H6v.18H5.46V7.58H5.26V1.22H4.72V1h.55V.21M5.07,0V.83H4.52v.6h.55V7.79h.6V1.43h.52V.83H5.67V0h-.6Z"/><path d="M12.52,22.49H11A1.62,1.62,0,0,1,12.52,21Z"/><path d="M11,22.71h1.49V24.2A1.6,1.6,0,0,1,11,22.71Z"/><path d="M12.74,22.71h1.49a1.59,1.59,0,0,1-1.49,1.49Z"/><path d="M14.23,22.49H12.74V21A1.61,1.61,0,0,1,14.23,22.49Z"/><rect y="30.96" width="25.26" height="1.04"/><path d="M12.63,12.87,8.48,16.62V29.93h8.31V16.62Zm0,11.88a2.16,2.16,0,1,1,2.16-2.16A2.17,2.17,0,0,1,12.63,24.75Z"/><polygon points="7.35 12.59 7.35 29.93 3.36 29.93 3.36 12.59 4.9 12.59 5.36 11.9 5.82 12.59 7.35 12.59"/><polygon points="21.9 12.59 21.9 29.93 17.91 29.93 17.91 12.59 19.45 12.59 19.91 11.9 20.37 12.59 21.9 12.59"/></g></g></svg>