<svg width="50" height="20" viewBox="0 0 50 20" fill="none" xmlns="http://www.w3.org/2000/svg">
<path d="M8.25623 0.000534131C6.72569 0.000635579 5.2253 0.429248 3.92261 1.23851C2.61992 2.04777 1.56621 3.20582 0.879147 4.58335C0.301065 5.74197 0 7.02069 0 8.31738C0 9.61407 0.301065 10.8928 0.879147 12.0514C1.56621 13.4289 2.61992 14.587 3.92261 15.3963C5.2253 16.2055 6.72569 16.6341 8.25623 16.6342C10.4854 16.6342 12.3604 15.8956 13.7292 14.6261C15.2875 13.1782 16.1875 11.0379 16.1875 8.50728C16.187 7.94036 16.1382 7.37452 16.0417 6.81601H8.25832V10.0181H12.7167C12.6259 10.5296 12.4333 11.0173 12.1504 11.4519C11.8676 11.8864 11.5003 12.2588 11.0708 12.5466C10.3292 13.0523 9.37498 13.3419 8.25832 13.3419C6.10415 13.3419 4.27707 11.8793 3.6229 9.90899C3.27741 8.87645 3.27741 7.75832 3.6229 6.72578C4.27707 4.75332 6.10415 3.29286 8.25832 3.29286C9.43541 3.27347 10.5728 3.72117 11.425 4.53929L13.7833 2.16814C12.289 0.753515 10.3068 -0.0233337 8.25623 0.000534131ZM21.8 1.15463V15.6333H23.6458V9.7684H26.6979C27.9542 9.7684 29.0104 9.35712 29.8687 8.53456C30.296 8.14878 30.6355 7.67453 30.8638 7.1443C31.0921 6.61407 31.204 6.04039 31.1917 5.46256C31.2003 4.88773 31.0868 4.31767 30.8586 3.7907C30.6304 3.26373 30.2929 2.79205 29.8687 2.40735C29.4487 1.99764 28.9522 1.67581 28.408 1.46044C27.8637 1.24506 27.2825 1.14041 26.6979 1.15253L21.8 1.15463ZM26.8562 2.93824C27.1784 2.9439 27.4961 3.0146 27.7906 3.14616C28.0851 3.27772 28.3504 3.46745 28.5708 3.70414C28.8056 3.9341 28.9921 4.20912 29.1195 4.51295C29.2469 4.81677 29.3126 5.14324 29.3126 5.47306C29.3126 5.80287 29.2469 6.12934 29.1195 6.43317C28.9921 6.73699 28.8056 7.01201 28.5708 7.24197C28.3348 7.48808 28.0504 7.68183 27.7358 7.81083C27.4212 7.93983 27.0833 8.00122 26.7437 7.99109H23.6458V2.93824H26.7437C26.7812 2.93736 26.8187 2.93736 26.8562 2.93824ZM35.4479 5.40381C33.6937 5.40381 32.3708 6.0501 31.475 7.34479L33.1021 8.37509C33.7021 7.50007 34.5187 7.06151 35.55 7.06151C36.2079 7.05337 36.8447 7.29539 37.3333 7.73928C37.5739 7.93961 37.7671 8.19137 37.899 8.47629C38.0309 8.76121 38.0981 9.07214 38.0958 9.3865V9.81036C37.3875 9.40538 36.4833 9.20394 35.3875 9.20394C34.1021 9.20394 33.075 9.5082 32.3062 10.1146C31.5354 10.719 31.1521 11.5352 31.1521 12.5592C31.1437 13.02 31.2376 13.4769 31.4268 13.8966C31.616 14.3162 31.8958 14.688 32.2458 14.9849C32.975 15.6312 33.8812 15.9565 34.9646 15.9565C36.2354 15.9565 37.2521 15.3899 38.0167 14.2568H38.0958V15.6312H39.8625V9.52709C39.8625 8.24709 39.4667 7.23987 38.6792 6.50545C37.8875 5.77102 36.8125 5.40381 35.4479 5.40381ZM40.1625 5.72696L44.2167 15.0059L41.9292 20H43.8354L50 5.72486H47.9896L45.1396 12.8404H45.0979L42.1687 5.72696H40.1625ZM35.6917 10.6959C36.7208 10.6959 37.525 10.9267 38.1 11.3883C38.1 12.1689 37.7937 12.8488 37.1833 13.43C36.6324 13.9851 35.8855 14.2975 35.1062 14.2988C34.5856 14.3088 34.0776 14.1367 33.6687 13.8119C33.4785 13.6733 33.3239 13.4909 33.2177 13.28C33.1115 13.069 33.0569 12.8356 33.0583 12.5991C33.0583 12.0598 33.3083 11.6129 33.8146 11.2414C34.3146 10.8784 34.9417 10.6959 35.6917 10.6959Z" fill="#DCDCDC"/>
</svg>
