<svg width="73" height="128" viewBox="0 0 73 128" fill="none" xmlns="http://www.w3.org/2000/svg">
<path d="M14.0005 0.42632C13.9071 0.674393 13.8324 1.26595 13.8324 1.72393C13.8324 2.18191 13.8137 2.65897 13.8137 2.79255C13.7951 2.94521 13.3095 3.04062 12.357 3.07879C10.9375 3.13604 10.9002 3.15512 10.8441 3.63218C10.7881 4.12833 10.8068 4.12833 12.2823 4.2619L13.7951 4.39548L13.8137 9.3951C13.8324 12.143 13.8884 14.6046 13.9631 14.8718C14.1126 15.4061 14.6915 15.616 14.9343 15.2153C15.0277 15.0817 15.1024 12.601 15.1024 9.70042V4.43365L16.1857 4.30007C16.7833 4.22374 17.4183 4.22374 17.5677 4.28099C17.9786 4.45273 18.4082 3.86117 18.1467 3.46044C18.016 3.21237 17.5864 3.11695 16.5779 3.04062L15.1958 2.94521L15.1398 1.70485C15.1024 1.03696 14.9904 0.369073 14.8783 0.235495C14.5795 -0.146155 14.1686 -0.0507424 14.0005 0.42632Z" fill="white"/>
<path d="M58.4509 0.159155C58.2828 0.27365 58.1521 0.827042 58.0774 1.64759L57.9653 2.9452L56.5646 3.04061C55.2198 3.13602 55.1638 3.15511 55.1078 3.65125C55.0518 4.09015 55.1265 4.16648 55.7988 4.28098C56.2097 4.35731 56.6206 4.35731 56.7326 4.30006C56.826 4.24281 57.1622 4.24281 57.4797 4.30006L58.0587 4.41455L58.096 9.89123L58.1521 15.3488L58.6003 15.4061C58.8431 15.4442 59.1233 15.3679 59.198 15.2153C59.2913 15.0817 59.3661 12.6009 59.3661 9.70041V4.41455L60.0197 4.30006C60.3746 4.22373 60.9536 4.22373 61.2897 4.28098C62.0928 4.43364 62.7278 3.99474 62.429 3.47951C62.2609 3.21236 61.9061 3.11694 60.8415 3.04061L59.4594 2.9452L59.3661 1.70484C59.2353 0.0828245 59.0486 -0.222495 58.4509 0.159155Z" fill="white"/>
<path d="M14.1126 19.0127C14.0752 19.089 13.8511 19.8141 13.627 20.5965C13.4028 21.3789 13.0853 22.3139 12.9359 22.6574C12.8052 23.0009 12.6745 23.4016 12.6745 23.5543C12.6745 23.707 12.5624 24.1077 12.413 24.4512C12.2636 24.7947 11.9647 25.7297 11.722 26.5121C11.4978 27.2945 11.1803 28.1532 11.0496 28.4203C10.9189 28.6875 10.8068 29.1264 10.8068 29.4126C10.8068 29.6989 10.7321 29.966 10.6387 30.0233C10.5453 30.0805 10.4146 30.4622 10.3399 30.8438C10.2652 31.2446 10.0971 31.7789 9.96635 32.046C9.83561 32.3132 9.59281 33.0383 9.40605 33.668C9.23796 34.2978 8.93913 35.2328 8.75237 35.7671C8.54692 36.2823 8.22942 37.3128 8.02398 38.057C7.81853 38.7821 7.445 39.9843 7.20221 40.7286C6.38043 43.2284 6.08161 44.2588 6.15631 44.3542C6.21234 44.3924 6.43646 44.4687 6.67926 44.4878C7.16485 44.5451 7.50103 43.8199 8.19207 41.301C8.43486 40.4614 8.73369 39.6027 8.86443 39.3928C9.01384 39.1829 9.1259 38.8394 9.1259 38.6295C9.1259 38.4196 9.35002 37.6372 9.59281 36.9121C9.85429 36.1678 10.2652 34.9275 10.508 34.1451C10.7508 33.3627 11.2177 31.9124 11.5352 30.9392C11.8527 29.966 12.1142 29.031 12.1142 28.8402C12.1142 28.6493 12.2262 28.344 12.357 28.1341C12.4877 27.9242 12.7305 27.2754 12.8986 26.7029C13.739 23.955 14.0565 22.9628 14.1686 22.8292C14.4487 22.4857 15.1398 23.8978 15.644 25.8442C15.7188 26.1686 15.8868 26.6075 15.9989 26.8365C16.1296 27.0655 16.223 27.3899 16.223 27.5807C16.223 27.7525 16.3911 28.2486 16.5779 28.6875C16.7646 29.1264 17.0821 29.9851 17.2502 30.6148C17.437 31.2446 17.6985 32.0079 17.8292 32.3323C17.9599 32.6376 18.2774 33.5917 18.5389 34.4313C18.7817 35.271 19.0805 36.206 19.1926 36.5304C19.5661 37.5609 20.9109 41.6636 21.1537 42.5414C21.714 44.4496 21.9194 44.6977 22.5544 44.2779C22.7598 44.1443 22.7598 43.9344 22.517 42.9994C22.1435 41.5873 21.1163 38.4387 20.7801 37.6372C20.6307 37.3128 20.5186 36.9502 20.5186 36.8357C20.5186 36.7212 20.3879 36.3587 20.2572 36.0152C20.1078 35.6717 19.7903 34.7557 19.5661 33.9734C19.342 33.2101 19.0432 32.3513 18.9125 32.0651C18.763 31.7979 18.651 31.4354 18.651 31.2827C18.651 30.9392 18.1841 29.5271 17.8292 28.7066C17.6798 28.3822 17.437 27.6189 17.2689 26.9892C17.1008 26.3594 16.802 25.4626 16.6152 24.9855C16.4098 24.5084 16.111 23.6116 15.9429 22.9818C15.7561 22.3521 15.4573 21.4362 15.2705 20.94C15.0651 20.4439 14.9157 19.9286 14.9157 19.776C14.9157 19.4516 14.2433 18.8028 14.1126 19.0127Z" fill="white"/>
<path d="M58.3202 19.2798C58.2455 19.4134 58.1147 19.8332 58.04 20.1958C57.8906 20.9018 57.4424 22.2949 57.1249 22.9818C57.0315 23.1917 56.77 24.0504 56.5459 24.871C56.3404 25.7106 56.0416 26.6457 55.9109 26.9701C55.7801 27.2945 55.5187 28.0769 55.3506 28.7066C55.1638 29.3363 54.9397 30.0614 54.8463 30.3286C54.5475 31.0728 54.0059 32.8475 53.8751 33.4772C53.8004 33.7825 53.6323 34.2977 53.5016 34.6222C53.1467 35.4236 52.8106 36.4159 52.6425 37.1983C52.5678 37.5609 52.2876 38.3814 52.0448 39.0302C51.7833 39.6599 51.5219 40.4996 51.4472 40.8812C51.3725 41.2819 51.0736 42.1979 50.7748 42.9421L50.2519 44.2779L50.6441 44.4496C51.1483 44.6405 51.7647 43.9917 52.0635 42.9421C52.5491 41.1675 52.8479 40.2515 53.2588 39.0111C53.5203 38.2669 53.8751 37.1601 54.0432 36.5304C54.23 35.9007 54.5288 35.0038 54.6969 34.5267C54.8837 34.0497 55.1638 33.1528 55.3319 32.5231C55.5187 31.8934 55.8175 30.9392 56.0043 30.424C56.191 29.8897 56.4899 28.9546 56.6579 28.3249C56.826 27.6952 57.0688 26.9701 57.1996 26.7029C57.3303 26.4358 57.5731 25.6725 57.7599 24.9855C58.3949 22.6002 58.8991 22.1613 59.2913 23.6497C59.5528 24.6229 59.8703 25.577 60.2065 26.4167C60.3372 26.722 60.58 27.5044 60.7668 28.1341C60.9349 28.7638 61.2524 29.6798 61.4392 30.1759C61.6446 30.6721 61.794 31.1873 61.794 31.34C61.794 31.4926 62.0368 32.2559 62.317 33.0192C63.1574 35.2328 63.3068 35.7289 63.4562 36.435C63.5309 36.7976 63.699 37.2746 63.8111 37.4845C63.9232 37.6944 64.222 38.5531 64.4835 39.3928C64.7262 40.2324 65.1745 41.6063 65.4546 42.446C65.7348 43.2856 65.9963 44.0871 66.0149 44.2207C66.071 44.3733 66.2951 44.4496 66.5939 44.4115C67.0422 44.3542 67.1169 44.2779 67.0795 43.7818C67.0608 43.4574 66.9674 43.0375 66.8741 42.8276C66.6313 42.2933 66.0149 40.5377 65.6414 39.2974C65.4733 38.7249 65.2118 37.9425 65.0624 37.5799C64.9317 37.2174 64.5955 36.2251 64.3527 35.3854C64.0912 34.5458 63.7177 33.3818 63.5123 32.8093C63.1201 31.7025 62.8399 30.8056 62.0555 28.3249C61.794 27.4853 61.4952 26.6266 61.4018 26.4167C61.1777 25.9014 59.5902 21.0736 59.2913 20.024C59.0672 19.1653 58.6003 18.8218 58.3202 19.2798Z" fill="white"/>
<path d="M36.3938 45.3656C36.3938 45.4419 35.6467 46.5296 34.7316 47.7891C33.1254 50.0027 32.6585 50.6324 30.548 53.4757C25.0197 60.9179 24.4034 61.9101 25.001 62.2918C25.3185 62.5017 25.6921 62.1391 26.7566 60.6698C27.3169 59.8874 28.0453 58.8951 28.3628 58.4753C29.0539 57.5593 33.7604 51.1285 34.1526 50.537C35.5907 48.3997 36.5245 47.312 36.842 47.3502C37.0661 47.3884 37.5891 47.9799 38.112 48.7432C38.5976 49.4683 39.5501 50.8995 40.2225 51.8918C40.8949 52.8841 41.7727 54.1817 42.1649 54.7542C42.5571 55.3267 43.3228 56.4907 43.8831 57.3303C45.7881 60.1927 47.0395 61.9483 47.3009 62.1773C47.6184 62.4635 48.1601 62.2536 48.1601 61.8338C48.1601 61.5857 45.5267 57.4639 43.9952 55.3267C43.8084 55.0595 43.2108 54.2008 42.6505 53.4184C42.0902 52.636 41.5672 51.8918 41.4738 51.7964C41.3991 51.6819 41.1377 51.2621 40.8762 50.8423C40.6334 50.4225 40.3159 50.0027 40.1852 49.9263C40.0544 49.85 39.9424 49.6973 39.9424 49.5828C39.9424 49.4874 39.6248 48.9531 39.2513 48.3997C37.0475 45.1939 37.0662 45.213 36.6366 45.213C36.5059 45.213 36.3938 45.2702 36.3938 45.3656Z" fill="white"/>
<path d="M66.0896 46.2816C65.9776 46.5869 65.9029 57.8456 65.9029 77.0807C65.9029 93.7588 65.8655 107.498 65.8095 107.651C65.7348 107.842 64.5955 107.88 59.889 107.842C54.6595 107.804 54.0432 107.823 53.7444 108.109C53.2961 108.529 53.2961 109.082 53.7444 109.33C54.1366 109.54 66.3885 109.616 66.9114 109.406C67.1916 109.292 67.2102 106.334 67.2102 77.844C67.2102 60.5362 67.1542 46.2625 67.0982 46.0907C66.9114 45.6137 66.2951 45.7282 66.0896 46.2816Z" fill="white"/>
<path d="M5.22248 46.3388C4.94233 46.8731 4.94233 108.91 5.22248 109.273C5.39057 109.464 6.71662 109.521 11.9274 109.521C18.9872 109.521 19.0245 109.521 18.763 108.491L18.651 108.013L12.7678 107.956C7.79986 107.899 6.84735 107.861 6.60455 107.613C6.36176 107.346 6.3244 103.93 6.3244 76.909C6.3244 54.8878 6.26837 46.4151 6.11896 46.2243C5.82014 45.8618 5.42793 45.919 5.22248 46.3388Z" fill="white"/>
<path d="M21.9567 46.1098C21.882 46.1671 21.826 49.8309 21.826 54.2199V62.2155L22.349 62.1582L22.8532 62.101L22.9093 54.468C22.9279 50.2698 22.9093 46.6441 22.8532 46.3961C22.7598 45.9953 22.2369 45.8236 21.9567 46.1098Z" fill="white"/>
<path d="M50.3266 46.2816C50.1771 46.6632 50.1771 61.5094 50.3266 61.8911C50.5133 62.3681 51.2791 62.2727 51.4098 61.7575C51.6152 60.9942 51.5405 46.7396 51.3351 46.3388C51.0923 45.8999 50.476 45.8618 50.3266 46.2816Z" fill="white"/>
<path d="M1.69262 51.8632L1.28174 52.0158L1.37512 113.194L9.3874 113.252C15.1398 113.271 17.4744 113.232 17.6425 113.08C17.8666 112.908 18.016 111.687 17.8666 111.534C17.8292 111.515 14.3741 111.439 10.1531 111.382L2.49572 111.286L2.40234 81.5746C2.34631 65.24 2.2716 51.8441 2.21557 51.7868C2.15954 51.7296 1.93542 51.7678 1.69262 51.8632Z" fill="white"/>
<path d="M70.0117 52.035C69.881 52.283 69.8249 61.5953 69.8249 81.7273C69.8249 97.8711 69.7689 111.133 69.6755 111.229C69.6008 111.305 66.1643 111.401 62.0741 111.42L54.6035 111.477L54.5474 112.221C54.5101 112.679 54.5848 113.023 54.7342 113.118C54.8649 113.213 58.4882 113.29 62.7652 113.29C69.5821 113.29 70.572 113.252 70.8335 112.984C71.0949 112.717 71.1323 109.702 71.1323 82.5479C71.1323 62.1296 71.0763 52.264 70.9455 52.0159C70.6841 51.5388 70.2732 51.5579 70.0117 52.035Z" fill="white"/>
<path d="M35.9384 68.8184C35.9237 68.8782 35.9237 70.1199 35.9384 71.5561C35.9531 72.9922 35.8944 74.2638 35.8211 74.3835C35.7184 74.5331 35.0583 74.5779 32.7406 74.5929C29.9974 74.6079 29.7627 74.6228 29.6307 74.8921C29.308 75.4905 29.616 75.5503 32.7406 75.5653C34.3541 75.5653 35.7184 75.6102 35.777 75.67C35.8357 75.7299 35.8944 80.3973 35.9091 86.0372C35.9237 91.692 35.9384 96.4193 35.9531 96.554C35.9531 96.8831 36.3785 97.0476 36.6278 96.8232C36.8039 96.6736 36.8332 94.8785 36.8332 86.2017C36.8332 78.0187 36.8772 75.7299 37.0239 75.6401C37.1119 75.5803 38.5348 75.5204 40.1631 75.5204C43.1702 75.5204 43.537 75.4606 43.3609 74.9519C43.2289 74.6228 42.4808 74.5331 40.0311 74.6079C38.8429 74.6378 37.6547 74.6228 37.3906 74.563L36.9066 74.4583L36.7599 68.7885L36.3638 68.7436C36.1291 68.7137 35.9531 68.7436 35.9384 68.8184Z" fill="white"/>
<path d="M47.7305 65.4786C47.4317 65.6312 47.413 67.1387 47.413 86.7937C47.413 104.407 47.3757 107.975 47.1515 108.166C46.9834 108.319 43.9765 108.357 36.2817 108.338L25.6547 108.281L25.468 65.5358H24.3474L24.2913 87.2517C24.2727 102.002 24.31 109.082 24.4407 109.349C24.6275 109.693 24.945 109.712 36.4685 109.712H48.2908L48.4963 109.235C48.6643 108.872 48.7204 103.167 48.7017 87.5189C48.7017 75.8404 48.6643 66.1083 48.6083 65.8793C48.4776 65.3832 48.1601 65.2305 47.7305 65.4786Z" fill="white"/>
<path d="M21.77 69.963C21.6953 70.0202 21.6392 79.5805 21.6392 91.2018C21.6392 107.365 21.6953 112.364 21.8634 112.536C22.0315 112.708 25.5613 112.765 36.6179 112.765C48.8885 112.765 51.167 112.727 51.2604 112.498C51.3164 112.345 51.3725 102.728 51.3911 91.1254L51.4285 70.0011L51.0176 69.9057C50.7935 69.8485 50.5133 69.8485 50.4199 69.9248C50.2705 70.0011 50.2145 76.3174 50.2145 90.4385C50.2145 101.64 50.1585 110.952 50.1024 111.124C49.9904 111.391 48.627 111.429 36.5806 111.429C25.7481 111.429 23.1334 111.372 22.984 111.181C22.8346 111.009 22.7785 104.96 22.7598 90.553C22.7598 79.3325 22.7038 70.0965 22.6478 70.0011C22.5357 69.7912 21.9381 69.7721 21.77 69.963Z" fill="white"/>
<path d="M13.2534 117.307C13.1227 117.555 13.1414 117.746 13.2721 117.879C13.4402 118.051 19.3981 118.108 36.6179 118.108H59.7396V116.963H36.5806C14.262 116.963 13.4215 116.982 13.2534 117.307Z" fill="white"/>
<path d="M6.77264 121.772C6.47382 122.726 5.2038 122.688 36.5432 122.65C63.587 122.592 65.7908 122.573 65.9589 122.268C66.1083 122.039 66.0896 121.867 65.9215 121.657C65.6974 121.39 62.8773 121.352 36.2817 121.352H6.90338L6.77264 121.772Z" fill="white"/>
<path d="M0.12376 126.905C0.0303768 126.981 -0.0256531 127.23 0.0117002 127.478L0.0677301 127.936L36.1136 127.993C55.9482 128.012 72.3463 127.993 72.5891 127.936C72.8693 127.859 73 127.688 73 127.363C73 127.096 72.8879 126.886 72.7759 126.886C57.8346 126.81 0.254496 126.829 0.12376 126.905Z" fill="white"/>
</svg>
