<svg width="34" height="34" viewBox="0 0 34 34" fill="none" xmlns="http://www.w3.org/2000/svg">
<path d="M34 17C34 26.3882 26.3882 34 17 34C7.61175 34 0 26.3882 0 17C0 14.4132 0.576583 11.9637 1.61075 9.76792C0.961324 11.3859 0.622963 13.1118 0.613417 14.8552C0.613417 22.5533 6.82833 23.6668 9.47325 23.6427C13.4923 23.6059 18.1914 21.6367 22.1496 17.9888L21.4823 21.743C21.3322 22.6001 21.8932 23.3552 22.7517 23.3608H23.1058C23.9941 23.3608 24.6259 22.6369 24.786 21.7416L26.2112 13.7204C26.3812 12.8308 25.7961 12.1054 24.9064 12.1054H16.8697C15.9772 12.1054 15.1597 12.5786 14.9997 13.4767L14.9373 13.838C14.8098 14.6922 15.4048 15.3354 16.2563 15.3354H20.4496C20.3818 15.4004 20.3148 15.466 20.2484 15.5323C17.3584 18.2665 13.7941 19.7653 10.8417 19.7653C7.89508 19.7653 4.59425 17.9052 4.59425 13.7176C4.59425 5.03625 12.7358 0 17 0C26.3698 0 34 7.61175 34 17Z" fill="#202020"/>
</svg>
