<svg width="28" height="32" viewBox="0 0 28 32" fill="none" xmlns="http://www.w3.org/2000/svg">
<path d="M9.87852 17.7602C10.0563 17.7602 14.1808 17.9379 16.6341 17.3335H16.6519C19.4786 16.6401 23.4075 14.649 24.4209 8.14229C24.4209 8.14229 26.6787 0 15.4786 0H5.86071C4.98959 0 4.24292 0.640005 4.10069 1.49335L0.0117708 27.378C-0.0771189 27.9114 0.349551 28.4091 0.882889 28.4091H6.98072L8.47407 18.9513C8.58073 18.2757 9.16741 17.7602 9.87852 17.7602Z" fill="white"/>
<path d="M25.9856 9.4043C24.5456 16.0355 20.0122 19.5377 12.7944 19.5377H10.181L8.3499 31.1289C8.27879 31.5912 8.63435 32 9.09658 32H12.4744C13.0788 32 13.6122 31.5556 13.7011 30.9511C13.8433 30.24 14.6255 25.0489 14.7855 24.16C14.8744 23.5555 15.4077 23.1111 16.0122 23.1111H16.7944C21.8078 23.1111 25.7367 21.0666 26.8923 15.1821C27.3545 12.7999 27.1056 10.8443 25.9856 9.4043Z" fill="white"/>
</svg>
