<svg width="51" height="90" viewBox="0 0 51 90" fill="none" xmlns="http://www.w3.org/2000/svg">
<path d="M9.78117 0.299756C9.71593 0.474182 9.66374 0.890121 9.66374 1.21214C9.66374 1.53416 9.65069 1.86959 9.65069 1.96351C9.63764 2.07085 9.29839 2.13794 8.63294 2.16477C7.64129 2.20503 7.61519 2.21844 7.57605 2.55388C7.53691 2.90273 7.54995 2.90273 8.58075 2.99665L9.63764 3.09057L9.65069 6.60593C9.66374 8.53803 9.70288 10.2689 9.75508 10.4567C9.85946 10.8324 10.264 10.98 10.4336 10.6982C10.4988 10.6043 10.551 8.86005 10.551 6.82061V3.11741L11.3078 3.02349C11.7253 2.96982 12.169 2.96982 12.2734 3.01007C12.5604 3.13082 12.8605 2.71489 12.6778 2.43312C12.5865 2.25869 12.2864 2.19161 11.5818 2.13794L10.6162 2.07085L10.5771 1.19872C10.551 0.729113 10.4727 0.259504 10.3944 0.165583C10.1857 -0.102765 9.89861 -0.0356782 9.78117 0.299756Z" fill="#202020"/>
<path d="M40.8356 0.111906C40.7181 0.19241 40.6268 0.581514 40.5746 1.15846L40.4963 2.07084L39.5177 2.13793C38.5782 2.20502 38.5391 2.21844 38.5 2.56729C38.4608 2.87589 38.513 2.92956 38.9827 3.01006C39.2698 3.06373 39.5569 3.06373 39.6351 3.02348C39.7004 2.98323 39.9352 2.98323 40.1571 3.02348L40.5616 3.10398L40.5876 6.95477L40.6268 10.7921L40.9399 10.8324C41.1096 10.8592 41.3053 10.8056 41.3575 10.6982C41.4227 10.6043 41.4749 8.86004 41.4749 6.8206V3.10398L41.9316 3.02348C42.1795 2.96981 42.584 2.96981 42.8189 3.01006C43.3799 3.1174 43.8236 2.8088 43.6148 2.44653C43.4974 2.25869 43.2495 2.1916 42.5057 2.13793L41.5402 2.07084L41.4749 1.19871C41.3836 0.058236 41.2531 -0.156442 40.8356 0.111906Z" fill="#202020"/>
<path d="M9.85946 13.3683C9.83336 13.422 9.67679 13.9318 9.52021 14.4819C9.36363 15.032 9.14182 15.6895 9.03743 15.931C8.9461 16.1725 8.85476 16.4543 8.85476 16.5616C8.85476 16.669 8.77647 16.9507 8.67209 17.1922C8.5677 17.4338 8.35893 18.0912 8.18931 18.6413C8.03273 19.1914 7.81091 19.7952 7.71958 19.9831C7.62824 20.1709 7.54995 20.4795 7.54995 20.6808C7.54995 20.882 7.49776 21.0699 7.43252 21.1101C7.36728 21.1504 7.27594 21.4187 7.22375 21.6871C7.17156 21.9688 7.05413 22.3445 6.96279 22.5324C6.87145 22.7202 6.70183 23.2301 6.57135 23.6728C6.45392 24.1156 6.24515 24.7731 6.11467 25.1487C5.97114 25.511 5.74932 26.2356 5.60579 26.7588C5.46226 27.2687 5.2013 28.114 5.03168 28.6373C4.45756 30.3949 4.24879 31.1195 4.30099 31.1866C4.34013 31.2134 4.49671 31.2671 4.66633 31.2805C5.00558 31.3207 5.24045 30.8109 5.72323 29.0398C5.89285 28.4494 6.10162 27.8456 6.19296 27.6981C6.29734 27.5505 6.37563 27.3089 6.37563 27.1614C6.37563 27.0138 6.5322 26.4637 6.70183 25.9538C6.8845 25.4305 7.17156 24.5584 7.34118 24.0083C7.51081 23.4582 7.83701 22.4384 8.05883 21.7541C8.28064 21.0699 8.46332 20.4124 8.46332 20.2782C8.46332 20.1441 8.5416 19.9294 8.63294 19.7818C8.72428 19.6342 8.8939 19.178 9.01134 18.7755C9.5985 16.8434 9.82032 16.1457 9.8986 16.0518C10.0943 15.8103 10.5771 16.8031 10.9294 18.1717C10.9816 18.3998 11.099 18.7084 11.1773 18.8694C11.2687 19.0304 11.3339 19.2585 11.3339 19.3927C11.3339 19.5134 11.4513 19.8623 11.5818 20.1709C11.7123 20.4795 11.9341 21.0833 12.0515 21.5261C12.182 21.9688 12.3647 22.5055 12.456 22.7336C12.5474 22.9483 12.7692 23.6192 12.9518 24.2095C13.1215 24.7999 13.3302 25.4573 13.4085 25.6854C13.6695 26.41 14.609 29.2947 14.7786 29.9119C15.17 31.2537 15.3135 31.4281 15.7572 31.1329C15.9007 31.039 15.9007 30.8914 15.7311 30.2339C15.4701 29.241 14.7525 27.0272 14.5176 26.4636C14.4132 26.2356 14.3349 25.9806 14.3349 25.9001C14.3349 25.8196 14.2436 25.5647 14.1523 25.3232C14.0479 25.0817 13.8261 24.4376 13.6695 23.8875C13.5129 23.3508 13.3041 22.747 13.2128 22.5458C13.1084 22.3579 13.0301 22.103 13.0301 21.9957C13.0301 21.7542 12.7039 20.7613 12.456 20.1843C12.3516 19.9562 12.182 19.4195 12.0646 18.9768C11.9471 18.534 11.7384 17.9034 11.6079 17.5679C11.4644 17.2325 11.2556 16.6019 11.1382 16.1591C11.0077 15.7163 10.7989 15.0723 10.6684 14.7234C10.5249 14.3746 10.4205 14.0123 10.4205 13.905C10.4205 13.6769 9.9508 13.2207 9.85946 13.3683Z" fill="#202020"/>
<path d="M40.7442 13.5561C40.692 13.65 40.6007 13.9452 40.5485 14.2002C40.4441 14.6966 40.131 15.6761 39.9091 16.1591C39.8439 16.3067 39.6612 16.9105 39.5047 17.4874C39.3611 18.0778 39.1524 18.7352 39.061 18.9633C38.9697 19.1914 38.787 19.7415 38.6696 20.1843C38.5391 20.6271 38.3825 21.1369 38.3173 21.3248C38.1085 21.8481 37.7301 23.0959 37.6388 23.5387C37.5866 23.7533 37.4692 24.1156 37.3778 24.3437C37.1299 24.9072 36.895 25.6049 36.7776 26.155C36.7254 26.41 36.5297 26.9869 36.3601 27.4431C36.1774 27.8859 35.9947 28.4763 35.9425 28.7446C35.8903 29.0264 35.6816 29.6704 35.4728 30.1937L35.1075 31.1329L35.3815 31.2537C35.7338 31.3878 36.1644 30.9316 36.3731 30.1937C36.7124 28.9459 36.9211 28.3018 37.2082 27.4297C37.3909 26.9064 37.6388 26.1282 37.7562 25.6854C37.8867 25.2427 38.0955 24.612 38.2129 24.2766C38.3434 23.9412 38.5391 23.3106 38.6565 22.8678C38.787 22.425 38.9958 21.7541 39.1263 21.3919C39.2567 21.0162 39.4655 20.3587 39.5829 19.916C39.7004 19.4732 39.87 18.9633 39.9613 18.7755C40.0527 18.5876 40.2223 18.0509 40.3528 17.5679C40.7964 15.8907 41.1487 15.5821 41.4227 16.6287C41.6054 17.313 41.8272 17.9839 42.0621 18.5742C42.1534 18.7889 42.323 19.339 42.4535 19.7818C42.571 20.2246 42.7928 20.8686 42.9232 21.2174C43.0668 21.5663 43.1712 21.9286 43.1712 22.0359C43.1712 22.1432 43.3408 22.6799 43.5365 23.2166C44.1237 24.7731 44.2281 25.1219 44.3324 25.6184C44.3846 25.8733 44.5021 26.2087 44.5804 26.3563C44.6586 26.5039 44.8674 27.1077 45.0501 27.698C45.2197 28.2884 45.5329 29.2545 45.7286 29.8448C45.9243 30.4352 46.107 30.9987 46.12 31.0926C46.1592 31.2 46.3158 31.2537 46.5245 31.2268C46.8377 31.1866 46.8899 31.1329 46.8638 30.784C46.8507 30.556 46.7855 30.2608 46.7202 30.1132C46.5506 29.7375 46.12 28.5031 45.8591 27.631C45.7416 27.2284 45.559 26.6783 45.4546 26.4234C45.3632 26.1685 45.1284 25.4708 44.9587 24.8804C44.7761 24.29 44.5151 23.4716 44.3716 23.069C44.0976 22.2908 43.9019 21.6602 43.3538 19.916C43.1712 19.3256 42.9624 18.7218 42.8972 18.5742C42.7406 18.212 41.6315 14.8174 41.4227 14.0794C41.2661 13.4756 40.9399 13.2341 40.7442 13.5561Z" fill="#202020"/>
<path d="M25.4258 31.8977C25.4258 31.9514 24.9039 32.7162 24.2645 33.6017C23.1424 35.1581 22.8162 35.6009 21.3418 37.6001C17.4795 42.8329 17.0489 43.5306 17.4665 43.7989C17.6883 43.9465 17.9493 43.6916 18.693 42.6584C19.0844 42.1083 19.5933 41.4106 19.8151 41.1154C20.2979 40.4714 23.586 35.9497 23.86 35.5338C24.8647 34.0311 25.5171 33.2663 25.739 33.2931C25.8955 33.3199 26.2609 33.7359 26.6262 34.2726C26.9655 34.7824 27.6309 35.7887 28.1007 36.4864C28.5704 37.1841 29.1836 38.0965 29.4577 38.4991C29.7317 38.9016 30.2666 39.72 30.6581 40.3104C31.989 42.323 32.8632 43.5574 33.0459 43.7184C33.2677 43.9197 33.6461 43.7721 33.6461 43.4769C33.6461 43.3025 31.8063 40.4043 30.7364 38.9016C30.6059 38.7137 30.1883 38.1099 29.7969 37.5598C29.4055 37.0097 29.0401 36.4864 28.9749 36.4194C28.9227 36.3389 28.74 36.0437 28.5573 35.7485C28.3877 35.4533 28.1659 35.1581 28.0746 35.1045C27.9832 35.0508 27.9049 34.9434 27.9049 34.8629C27.9049 34.7959 27.6831 34.4202 27.4222 34.0311C25.8825 31.7769 25.8955 31.7904 25.5954 31.7904C25.5041 31.7904 25.4258 31.8306 25.4258 31.8977Z" fill="#202020"/>
<path d="M46.1722 32.5417C46.0939 32.7564 46.0417 40.6727 46.0417 54.1974C46.0417 65.9242 46.0156 75.5847 45.9765 75.692C45.9243 75.8262 45.1284 75.853 41.8403 75.8262C38.1868 75.7994 37.7562 75.8128 37.5474 76.0141C37.2343 76.3092 37.2343 76.6983 37.5474 76.8728C37.8215 77.0204 46.381 77.074 46.7463 76.9264C46.9421 76.8459 46.9551 74.7662 46.9551 54.7341C46.9551 42.5645 46.916 32.5283 46.8768 32.4076C46.7463 32.0721 46.3157 32.1526 46.1722 32.5417Z" fill="#202020"/>
<path d="M3.64858 32.582C3.45286 32.9577 3.45286 76.5776 3.64858 76.8325C3.76602 76.9667 4.69243 77.0069 8.33284 77.0069C13.265 77.0069 13.2911 77.0069 13.1084 76.2824L13.0301 75.947L8.92 75.9067C5.44922 75.8665 4.78377 75.8396 4.61414 75.6652C4.44452 75.4774 4.41842 73.0756 4.41842 54.0766C4.41842 38.593 4.37928 32.6356 4.27489 32.5015C4.06612 32.2465 3.79211 32.2868 3.64858 32.582Z" fill="#202020"/>
<path d="M15.3396 32.421C15.2875 32.4612 15.2483 35.0374 15.2483 38.1234V43.7453L15.6137 43.705L15.966 43.6647L16.0051 38.2978C16.0181 35.346 16.0051 32.7967 15.966 32.6222C15.9007 32.3405 15.5354 32.2197 15.3396 32.421Z" fill="#202020"/>
<path d="M35.1597 32.5417C35.0553 32.8101 35.0553 43.2488 35.1597 43.5171C35.2901 43.8526 35.8251 43.7855 35.9164 43.4232C36.06 42.8865 36.0078 32.8637 35.8642 32.582C35.6946 32.2734 35.264 32.2465 35.1597 32.5417Z" fill="#202020"/>
<path d="M1.18252 36.4663L0.895461 36.5736L0.960702 79.5898L6.55832 79.63C10.5771 79.6434 12.2081 79.6166 12.3256 79.5093C12.4821 79.3885 12.5865 78.5298 12.4821 78.4225C12.456 78.409 10.0422 78.3554 7.09329 78.3151L1.74359 78.248L1.67835 57.3572C1.6392 45.8719 1.58701 36.4529 1.54786 36.4126C1.50872 36.3724 1.35214 36.3992 1.18252 36.4663Z" fill="#202020"/>
<path d="M48.9123 36.5871C48.8209 36.7615 48.7818 43.3092 48.7818 57.4645C48.7818 68.8156 48.7427 78.1407 48.6774 78.2078C48.6252 78.2615 46.2244 78.3286 43.3669 78.342L38.1476 78.3822L38.1085 78.9055C38.0824 79.2275 38.1346 79.469 38.239 79.5361C38.3303 79.6032 40.8616 79.6569 43.8496 79.6569C48.6122 79.6569 49.3037 79.6301 49.4864 79.4422C49.6691 79.2544 49.6952 77.1344 49.6952 58.0415C49.6952 43.6849 49.656 36.7481 49.5647 36.5737C49.382 36.2382 49.095 36.2517 48.9123 36.5871Z" fill="#202020"/>
<path d="M25.1077 48.3879C25.0974 48.43 25.0974 49.3031 25.1077 50.3129C25.1179 51.3226 25.0769 52.2167 25.0257 52.3009C24.9539 52.4061 24.4928 52.4376 22.8735 52.4481C20.9571 52.4586 20.7931 52.4692 20.7009 52.6585C20.4755 53.0793 20.6907 53.1213 22.8735 53.1318C24.0008 53.1318 24.9539 53.1634 24.9949 53.2055C25.0359 53.2476 25.0769 56.5294 25.0872 60.4949C25.0974 64.4709 25.1077 67.7948 25.1179 67.8895C25.1179 68.1209 25.4151 68.2366 25.5893 68.0788C25.7123 67.9736 25.7328 66.7114 25.7328 60.6106C25.7328 54.8569 25.7635 53.2476 25.866 53.1844C25.9275 53.1424 26.9216 53.1003 28.0591 53.1003C30.16 53.1003 30.4162 53.0582 30.2933 52.7006C30.201 52.4692 29.6784 52.4061 27.9669 52.4587C27.1368 52.4797 26.3067 52.4692 26.1222 52.4271L25.784 52.3535L25.6816 48.3669L25.4049 48.3353C25.2409 48.3143 25.1179 48.3353 25.1077 48.3879Z" fill="#202020"/>
<path d="M33.346 46.0396C33.1372 46.147 33.1242 47.2069 33.1242 61.0268C33.1242 73.4111 33.0981 75.9201 32.9415 76.0543C32.8241 76.1616 30.7233 76.1885 25.3475 76.1751L17.9232 76.1348L17.7927 46.0799H17.0098L16.9707 61.3489C16.9576 71.7205 16.9837 76.6983 17.075 76.8862C17.2055 77.1277 17.4273 77.1411 25.478 77.1411H33.7374L33.8809 76.8057C33.9984 76.5508 34.0375 72.5389 34.0245 61.5367C34.0245 53.3253 33.9984 46.4824 33.9592 46.3214C33.8679 45.9725 33.6461 45.8652 33.346 46.0396Z" fill="#202020"/>
<path d="M15.2092 49.1927C15.157 49.233 15.1178 55.9551 15.1178 64.1263C15.1178 75.4908 15.157 79.0061 15.2744 79.1269C15.3918 79.2476 17.8579 79.2879 25.5824 79.2879C34.155 79.2879 35.7468 79.2611 35.8121 79.1001C35.8512 78.9927 35.8903 72.2303 35.9034 64.0726L35.9295 49.2195L35.6424 49.1525C35.4859 49.1122 35.2901 49.1122 35.2249 49.1659C35.1205 49.2195 35.0814 53.6607 35.0814 63.5896C35.0814 71.4656 35.0422 78.0132 35.0031 78.134C34.9248 78.3218 33.9723 78.3487 25.5563 78.3487C17.9884 78.3487 16.1617 78.3084 16.0573 78.1743C15.9529 78.0535 15.9138 73.8002 15.9007 63.6701C15.9007 55.7806 15.8616 49.2866 15.8224 49.2195C15.7441 49.0719 15.3266 49.0585 15.2092 49.1927Z" fill="#202020"/>
<path d="M9.25925 82.4812C9.16791 82.6557 9.18096 82.7898 9.2723 82.8838C9.38973 83.0045 13.5521 83.0448 25.5824 83.0448H41.7359V82.2397H25.5563C9.96385 82.2397 9.37668 82.2531 9.25925 82.4812Z" fill="#202020"/>
<path d="M4.73157 85.6209C4.5228 86.2918 3.63553 86.2649 25.5302 86.2381C44.4238 86.1978 45.9634 86.1844 46.0809 85.9697C46.1853 85.8087 46.1722 85.688 46.0548 85.5404C45.8982 85.3525 43.9279 85.3257 25.3475 85.3257H4.82291L4.73157 85.6209Z" fill="#202020"/>
<path d="M0.0864625 89.2302C0.0212222 89.2839 -0.017922 89.4583 0.00817412 89.6327L0.0473183 89.9547L25.2301 89.995C39.0871 90.0084 50.5433 89.995 50.7129 89.9547C50.9087 89.9011 51 89.7803 51 89.5522C51 89.3644 50.9217 89.2168 50.8434 89.2168C40.405 89.1631 0.177799 89.1765 0.0864625 89.2302Z" fill="#202020"/>
</svg>
